<svg class="Logotype__Logo-kddhy2-0 lfRsOc" height="64" width="438" viewBox="0 0 438 64" fill="none" xmlns="http://www.w3.org/2000/svg"><path d="M4.10706 25.6934L1.91707 27.8834C1.31092 28.4657 0.828669 29.1644 0.499237 29.9377C0.169806 30.711 0 31.5428 0 32.3834C0 33.2239 0.169806 34.0558 0.499237 34.829C0.828669 35.6023 1.31092 36.3011 1.91707 36.8834L19.56 54.7004C19.9782 55.1282 20.4649 55.4831 21 55.7504V34.1534L4.10706 25.6934Z" fill="#3D89F5"></path><path d="M43.8929 25.6934L46.0829 27.8834C46.6891 28.4657 47.1713 29.1644 47.5008 29.9377C47.8302 30.711 48 31.5428 48 32.3834C48 33.2239 47.8302 34.0558 47.5008 34.829C47.1713 35.6023 46.6891 36.3011 46.0829 36.8834L28.44 54.7004C28.0218 55.1282 27.5351 55.4831 27 55.7504V34.1534L43.8929 25.6934Z" fill="#1656B9"></path><path d="M39.6569 21.2234L28.6169 10.1534C28.0324 9.55103 27.333 9.0721 26.56 8.74506C25.787 8.41802 24.9562 8.24951 24.1169 8.24951C23.2776 8.24951 22.4467 8.41802 21.6738 8.74506C20.9008 9.0721 20.2013 9.55103 19.6169 10.1534L8.54688 21.2234L24.0569 28.9634L39.6569 21.2234Z" fill="#85B5F8"></path><path class="logomark-color" d="M67.1605 50H82.6967C90.8643 50 95.2145 45.7386 95.2145 39.9503C95.2145 34.5703 91.3615 31.321 87.2244 31.1257V30.7706C91.0064 29.9183 93.794 27.2372 93.794 22.9581C93.794 17.5071 89.7457 13.6364 81.7202 13.6364H67.1605V50ZM74.8487 43.7145V34.0554H81.294C84.9872 34.0554 87.2777 36.1861 87.2777 39.1868C87.2777 41.9212 85.4134 43.7145 81.1165 43.7145H74.8487ZM74.8487 28.853V19.8509H80.6903C84.0994 19.8509 86.0348 21.6087 86.0348 24.2365C86.0348 27.1129 83.6911 28.853 80.5483 28.853H74.8487ZM106.389 13.6364H98.8251V50H106.389V13.6364ZM123.521 50.5327C131.795 50.5327 136.944 44.8686 136.944 36.4702C136.944 28.0185 131.795 22.3722 123.521 22.3722C115.246 22.3722 110.097 28.0185 110.097 36.4702C110.097 44.8686 115.246 50.5327 123.521 50.5327ZM123.556 44.6733C119.739 44.6733 117.786 41.1754 117.786 36.4169C117.786 31.6584 119.739 28.1428 123.556 28.1428C127.303 28.1428 129.256 31.6584 129.256 36.4169C129.256 41.1754 127.303 44.6733 123.556 44.6733ZM152.935 50.5327C160.197 50.5327 164.76 46.2713 165.115 40.0036H157.977C157.533 42.9155 155.616 44.549 153.023 44.549C149.49 44.549 147.2 41.5838 147.2 36.3636C147.2 31.2145 149.508 28.267 153.023 28.267C155.793 28.267 157.569 30.0959 157.977 32.8125H165.115C164.795 26.5092 160.019 22.3722 152.899 22.3722C144.625 22.3722 139.511 28.1072 139.511 36.4702C139.511 44.7621 144.536 50.5327 152.935 50.5327ZM168.708 50H176.272V41.3352L178.314 39.0092L185.753 50H194.613L183.978 34.5348L194.099 22.7273H185.416L176.68 33.0788H176.272V13.6364H168.708V50ZM207.759 50.5327C215.021 50.5327 219.584 46.2713 219.939 40.0036H212.801C212.358 42.9155 210.44 44.549 207.848 44.549C204.314 44.549 202.024 41.5838 202.024 36.3636C202.024 31.2145 204.332 28.267 207.848 28.267C210.618 28.267 212.393 30.0959 212.801 32.8125H219.939C219.62 26.5092 214.843 22.3722 207.723 22.3722C199.449 22.3722 194.336 28.1072 194.336 36.4702C194.336 44.7621 199.36 50.5327 207.759 50.5327ZM231.096 34.233C231.114 30.7173 233.262 28.6577 236.352 28.6577C239.423 28.6577 241.235 30.6286 241.217 33.9844V50H248.781V32.6349C248.798 26.2429 245.034 22.3722 239.352 22.3722C235.215 22.3722 232.445 24.3253 231.203 27.5391H230.883V13.6364H223.532V50H231.096V34.233ZM261.26 50.5149C265.291 50.5149 267.901 48.7571 269.233 46.218H269.446V50H276.619V31.6051C276.619 25.1065 271.115 22.3722 265.042 22.3722C258.508 22.3722 254.211 25.4972 253.164 30.4688L260.159 31.0369C260.674 29.2259 262.29 27.8942 265.007 27.8942C267.581 27.8942 269.055 29.1903 269.055 31.4276V31.5341C269.055 33.2919 267.191 33.5227 262.45 33.9844C257.052 34.4815 252.205 36.2926 252.205 42.3828C252.205 47.7805 256.058 50.5149 261.26 50.5149ZM263.426 45.2947C261.1 45.2947 259.431 44.2116 259.431 42.1342C259.431 40.0036 261.189 38.956 263.853 38.5831C265.504 38.3523 268.203 37.9616 269.108 37.358V40.2521C269.108 43.1108 266.747 45.2947 263.426 45.2947ZM281.237 50H288.801V22.7273H281.237V50ZM285.037 19.2116C287.292 19.2116 289.138 17.4893 289.138 15.3764C289.138 13.2812 287.292 11.5589 285.037 11.5589C282.8 11.5589 280.953 13.2812 280.953 15.3764C280.953 17.4893 282.8 19.2116 285.037 19.2116ZM301.174 34.233C301.192 30.7173 303.287 28.6577 306.341 28.6577C309.377 28.6577 311.206 30.6463 311.188 33.9844V50H318.752V32.6349C318.752 26.2784 315.024 22.3722 309.342 22.3722C305.294 22.3722 302.364 24.3608 301.139 27.5391H300.819V22.7273H293.61V50H301.174V34.233Z" fill="#fff"></path><path d="M327.885 50.4616C330.158 50.4616 332.129 48.5618 332.146 46.2003C332.129 43.8743 330.158 41.9744 327.885 41.9744C325.541 41.9744 323.606 43.8743 323.624 46.2003C323.606 48.5618 325.541 50.4616 327.885 50.4616ZM349.429 50.5327C356.691 50.5327 361.254 46.2713 361.609 40.0036H354.471C354.028 42.9155 352.11 44.549 349.518 44.549C345.984 44.549 343.694 41.5838 343.694 36.3636C343.694 31.2145 346.002 28.267 349.518 28.267C352.287 28.267 354.063 30.0959 354.471 32.8125H361.609C361.29 26.5092 356.513 22.3722 349.393 22.3722C341.119 22.3722 336.006 28.1072 336.006 36.4702C336.006 44.7621 341.03 50.5327 349.429 50.5327ZM377.525 50.5327C385.799 50.5327 390.948 44.8686 390.948 36.4702C390.948 28.0185 385.799 22.3722 377.525 22.3722C369.25 22.3722 364.101 28.0185 364.101 36.4702C364.101 44.8686 369.25 50.5327 377.525 50.5327ZM377.56 44.6733C373.743 44.6733 371.789 41.1754 371.789 36.4169C371.789 31.6584 373.743 28.1428 377.56 28.1428C381.306 28.1428 383.26 31.6584 383.26 36.4169C383.26 41.1754 381.306 44.6733 377.56 44.6733ZM394.616 50H402.18V33.6293C402.18 30.6108 404.098 28.6044 406.619 28.6044C409.105 28.6044 410.774 30.3089 410.774 32.9901V50H418.107V33.3452C418.107 30.522 419.723 28.6044 422.475 28.6044C424.89 28.6044 426.701 30.1136 426.701 33.1499V50H434.247V31.6584C434.247 25.7457 430.731 22.3722 425.653 22.3722C421.658 22.3722 418.551 24.4141 417.432 27.5391H417.148C416.278 24.3786 413.49 22.3722 409.744 22.3722C406.069 22.3722 403.281 24.3253 402.145 27.5391H401.825V22.7273H394.616V50Z" fill="#B1B8C7"></path></svg>