<svg viewBox="0 0 100 32" version="1.1" xmlns="http://www.w3.org/2000/svg" preserveAspectRatio="none" class="SparkLine__Svg-sc-15clgaw-0 cojVTF"><path d="M 0,14.222550915833006 C 7.612829103041976e-18,14.098223981596256 -0.2,13.689421210750226 0,13.600916244649255 C 0.2,13.512411278548285 0.6000000000000001,13.750627366651214 1,13.780026085328151 C 1.4,13.809424804005088 1.6,13.63772640500947 2,13.747909838033943 C 2.4,13.858093271058415 2.6,14.12453459957167 3,14.330943250450515 C 3.4,14.53735190132936 3.5999999999999996,14.420374646761896 4,14.779953092428169 C 4.4,15.139531538094442 4.8,15.664138085241289 5,16.12883547878188 C 5.2,16.59353287232247 4.8,17.09170527746596 5,17.103440060131124 C 5.2,17.11517484279629 5.6,16.242724632648027 6,16.187509392107707 C 6.4,16.132294151567386 6.6,16.966822485102917 7,16.82736385742952 C 7.4,16.687905229756126 7.6,15.843433211962228 8,15.490216253740737 C 8.4,15.136999295519246 8.6,15.137555153645607 9,15.061279066322069 C 9.4,14.98500297899853 9.8,15.063934832925282 10,15.108835817123047 C 10.2,15.153736801320813 9.8,15.181591469647023 10,15.285783987310896 C 10.2,15.38997650497477 10.6,15.3860237360771 11,15.629798405442418 C 11.4,15.873573074807737 11.6,16.33678818001159 12,16.504657334137487 C 12.4,16.672526488263383 12.6,16.51169820373668 13,16.4691441760719 C 13.4,16.42659014840712 13.6,15.829166186721933 14,16.291887195813587 C 14.4,16.754608204905242 14.8,18.37919622187651 15,18.78274922153017 C 15.2,19.186302221183833 14.8,18.341583155333936 15,18.309652194081902 C 15.2,18.27772123282987 15.6,18.863101601779665 16,18.62309441527001 C 16.4,18.383087228760356 16.6,17.415894089094493 17,17.109616261533628 C 17.4,16.803338433972762 17.6,16.952750450827747 18,17.091705277465685 C 18.4,17.230660104103624 18.6,18.07319007126148 19,17.80439039472332 C 19.4,17.535590718185162 19.8,16.33193857569831 20,15.747706894774888 C 20.2,15.163475213851465 19.8,15.312006595898243 20,14.883231990106205 C 20.2,14.454457384314168 20.6,13.840791507781125 21,13.603833865814702 C 21.4,13.366876223848278 21.6,13.77499742347721 22,13.698443780274088 C 22.4,13.621890137070967 22.6,13.197567762547713 23,13.22106564979909 C 23.4,13.244563537050468 23.6,13.462042667216323 24,13.815933216530972 C 24.4,14.16982376584562 24.8,14.662228176852604 25,14.990518396372336 C 25.2,15.318808615892067 24.8,15.474574873750376 25,15.457384314129625 C 25.2,15.440193754508874 25.6,15.266742244666583 26,14.904565598268583 C 26.4,14.542388951870583 26.6,14.442522931052325 27,13.646501082139624 C 27.4,12.850479233226922 27.6,11.389930949191008 28,10.924456353705075 C 28.4,10.458981758219142 28.6,10.990157683190853 29,11.319128104709955 C 29.4,11.648098526229058 29.8,12.256693806039337 30,12.56930846130059 C 30.2,12.881923116561843 29.8,12.997588374729496 30,12.882201381016223 C 30.2,12.76681438730295 30.6,11.95230341131611 31,11.992373492734224 C 31.4,12.032443574152337 31.6,12.426095022158108 32,13.082551788106787 C 32.4,13.739008554055467 32.6,14.66952488920956 33,15.27465732247762 C 33.4,15.879789755745678 33.6,16.177965577656416 34,16.108213954447084 C 34.4,16.038462331237753 34.8,15.035597237967588 35,14.925899206430959 C 35.2,14.81620117489433 34.8,15.635040709059103 35,15.559723796763942 C 35.2,15.48440688446878 35.6,15.004462537359586 36,14.549314644955155 C 36.4,14.094166752550723 36.6,13.566515510666756 37,13.283984334741783 C 37.4,13.00145315881681 37.6,13.062423992579593 38,13.136658765330287 C 38.4,13.210893538080981 38.6,13.691827269916471 39,13.655158198495254 C 39.4,13.618489127074037 39.8,13.326064103885335 40,12.953313408224199 C 40.2,12.580562712563063 39.8,12.58717922292068 40,11.791404720189577 C 40.2,10.995630217458475 40.6,9.355044831495402 41,8.974440894568689 C 41.4,8.593836957641976 41.6,9.382191074925274 42,9.888385035556013 C 42.4,10.394578996186752 42.6,10.99346593836961 43,11.505410697722386 C 43.4,12.017355457075162 43.6,12.360362774399652 44,12.44810883231989 C 44.4,12.53585489024013 44.8,12.102164279089026 45,11.944140987323578 C 45.2,11.786117695558131 44.8,11.803926620632726 45,11.657992373492652 C 45.2,11.512058126352578 45.6,11.373296918478813 46,11.214469751623211 C 46.4,11.05564258476761 46.6,11.105884777903695 47,10.863856539214641 C 47.4,10.621828300525587 47.6,10.176234154385282 48,10.004328558177942 C 48.4,9.832422961970602 48.6,10.096526847366864 49,10.004328558177942 C 49.4,9.91213026898902 49.8,9.343666907142147 50,9.543337112233338 C 50.2,9.74300731732453 49.8,10.814325466350573 50,11.002679583633899 C 50.2,11.191033700917226 50.6,10.360878078944722 51,10.485107698649971 C 51.4,10.60933731835522 51.6,11.454704730495713 52,11.623827682160139 C 52.4,11.792950633824564 52.6,11.272534267752263 53,11.330722456972099 C 53.4,11.388910646191935 53.6,11.723941049160063 54,11.914768628259313 C 54.4,12.105596207358564 54.8,12.152097289498153 55,12.284860352468352 C 55.2,12.41762341543855 54.8,12.51130578171693 55,12.578583943110305 C 55.2,12.64586210450368 55.6,12.246645367412112 56,12.621251159435225 C 56.4,12.995856951458338 56.6,13.907203957538956 57,14.451612903225865 C 57.4,14.996021848912774 57.6,15.301123363908118 58,15.343295887869772 C 58.4,15.385468411831425 58.6,15.153952385860082 59,14.662475523034136 C 59.4,14.17099866020819 59.8,13.651448005771368 60,12.88591157374004 C 60.2,12.120375141708713 59.8,10.9574770689478 60,10.834793362877503 C 60.2,10.712109656807208 60.6,11.985385963104124 61,12.272493043388563 C 61.4,12.559600123673002 61.6,12.124023497887244 62,12.270328764299698 C 62.4,12.416634030712153 62.6,12.708502524992232 63,13.004019375450838 C 63.4,13.299536225909444 63.6,13.667401834484089 64,13.74791301659273 C 64.4,13.82842419870137 64.8,13.194104916005358 65,13.406575285994043 C 65.2,13.619045655982728 64.8,14.373080490569947 65,14.810264866536151 C 65.2,15.247449242502356 65.6,15.751231577862598 66,15.592497165825066 C 66.4,15.433762753787533 66.6,14.309883541172773 67,14.016592806348491 C 67.4,13.723302071524209 67.6,14.84699577450276 68,14.126043491703655 C 68.4,13.40509120890455 68.6,12.437040090693692 69,10.411831392352962 C 69.4,8.386622694012232 69.8,2.450654436772163 70,4 C 70.2,5.5493455632278375 69.8,15.366762856848334 70,18.158559208492147 C 70.2,20.95035556013596 70.6,17.909605276718487 71,17.95898175821906 C 71.4,18.008358239719634 71.6,18.358198495310695 72,18.405441615995013 C 72.4,18.45268473667933 72.6,17.54591363495818 73,18.195197361640652 C 73.4,18.844481088323125 73.6,21.03287642997007 74,21.651860249407378 C 74.4,22.270844068844685 74.8,21.339214675873446 75,21.290116458827185 C 75.2,21.241018241780925 74.8,21.049201277955312 75,21.406369164176073 C 75.2,21.763537050396835 75.6,22.550468927136 76,23.075955889930995 C 76.4,23.60144285272599 76.6,24.0549520766773 77,24.033803978151063 C 77.4,24.012655879624827 77.6,23.223436050705985 78,22.970215397299814 C 78.4,22.716994743893643 78.6,22.582685767288428 79,22.767700711120217 C 79.4,22.952715654952005 79.8,23.793383489642316 80,23.89529011645876 C 80.2,23.997196743275204 79.8,23.004411006904974 80,23.277233845202428 C 80.2,23.550056683499882 80.6,24.708131505719905 81,25.259404307946028 C 81.4,25.81067711017215 81.6,25.485478717922255 82,26.03359785633305 C 82.4,26.581716994743843 82.6,29.144223436050705 83,28 C 83.4,26.855776563949295 83.6,21.33340204060595 84,20.31248067607952 C 84.4,19.29155931155309 84.8,23.041327424507895 85,22.895393177367854 C 85.2,22.749458930227814 84.8,19.958899309491965 85,19.582809440379325 C 85.2,19.206719571266685 85.6,21.252086983407256 86,21.014943831804658 C 86.4,20.77780068020206 86.6,19.2143254663507 87,18.39709368236634 C 87.4,17.579861898381978 87.6,17.083190765742483 88,16.92878491188285 C 88.4,16.774379058023218 88.6,17.42347727506962 89,17.625064413068177 C 89.4,17.826651551066735 89.8,17.87438936411415 90,17.936720601875646 C 90.2,17.99905183963714 89.8,18.433700917242028 90,17.936720601875646 C 90.2,17.439740286509263 90.6,16.198680820364743 91,15.45181902504373 C 91.4,14.704957229722714 91.6,14.50176234154388 92,14.202411625270571 C 92.4,13.903060908997261 92.6,14.316561888075848 93,13.955065443677185 C 93.4,13.593568999278522 93.6,12.568195403483378 94,12.39492940327726 C 94.4,12.221663403071142 94.8,12.893331959187845 95,13.088735442646596 C 95.2,13.284138926105348 94.8,13.305287024631617 95,13.371946820571011 C 95.2,13.438606616510405 95.6,13.394207976914323 96,13.422034422343566 C 96.4,13.44986086777281 96.6,13.741482015871389 97,13.511079047717224 C 97.4,13.28067607956306 97.6,12.989425950736928 98,12.270019581572742 C 98.4,11.550613212408555 98.8,10.385241677831578 99,9.914047201896288" class="SparkLine__Path-sc-15clgaw-1 geFRMZ"></path></svg>